<mxfile host="app.diagrams.net" modified="2020-07-01T05:46:19.258Z" agent="5.0 (Windows NT 10.0; WOW64) AppleWebKit/537.36 (KHTML, like Gecko) Chrome/70.0.3538.25 Safari/537.36 Core/1.70.3704.400 QQBrowser/10.4.3620.400" etag="4aN07MuXkUCyYzQJLHbx" version="13.3.5" type="github">
  <diagram id="VHTtM9zIeeYudwqyfE-V" name="第 1 页">
    <mxGraphModel dx="1422" dy="765" grid="1" gridSize="10" guides="1" tooltips="1" connect="1" arrows="1" fold="1" page="1" pageScale="1" pageWidth="827" pageHeight="1169" math="0" shadow="0">
      <root>
        <mxCell id="0" />
        <mxCell id="1" parent="0" />
        <mxCell id="OKV0el0FlVdzbzRbePZn-1" value="全部数据" style="rounded=0;whiteSpace=wrap;html=1;" vertex="1" parent="1">
          <mxGeometry x="340" y="10" width="120" height="60" as="geometry" />
        </mxCell>
        <mxCell id="OKV0el0FlVdzbzRbePZn-22" style="edgeStyle=orthogonalEdgeStyle;rounded=0;orthogonalLoop=1;jettySize=auto;html=1;entryX=0;entryY=0.5;entryDx=0;entryDy=0;" edge="1" parent="1" source="OKV0el0FlVdzbzRbePZn-2" target="OKV0el0FlVdzbzRbePZn-3">
          <mxGeometry relative="1" as="geometry" />
        </mxCell>
        <mxCell id="OKV0el0FlVdzbzRbePZn-28" style="edgeStyle=orthogonalEdgeStyle;rounded=0;orthogonalLoop=1;jettySize=auto;html=1;" edge="1" parent="1" source="OKV0el0FlVdzbzRbePZn-2" target="OKV0el0FlVdzbzRbePZn-29">
          <mxGeometry relative="1" as="geometry">
            <mxPoint x="80" y="320" as="targetPoint" />
          </mxGeometry>
        </mxCell>
        <mxCell id="OKV0el0FlVdzbzRbePZn-2" value="实时数据" style="rounded=0;whiteSpace=wrap;html=1;" vertex="1" parent="1">
          <mxGeometry x="20" y="160" width="120" height="60" as="geometry" />
        </mxCell>
        <mxCell id="OKV0el0FlVdzbzRbePZn-23" style="edgeStyle=orthogonalEdgeStyle;rounded=0;orthogonalLoop=1;jettySize=auto;html=1;" edge="1" parent="1" source="OKV0el0FlVdzbzRbePZn-3" target="OKV0el0FlVdzbzRbePZn-5">
          <mxGeometry relative="1" as="geometry" />
        </mxCell>
        <mxCell id="OKV0el0FlVdzbzRbePZn-33" style="edgeStyle=orthogonalEdgeStyle;rounded=0;orthogonalLoop=1;jettySize=auto;html=1;entryX=0.5;entryY=0;entryDx=0;entryDy=0;" edge="1" parent="1" source="OKV0el0FlVdzbzRbePZn-3" target="OKV0el0FlVdzbzRbePZn-30">
          <mxGeometry relative="1" as="geometry" />
        </mxCell>
        <mxCell id="OKV0el0FlVdzbzRbePZn-3" value="分钟数据" style="rounded=0;whiteSpace=wrap;html=1;" vertex="1" parent="1">
          <mxGeometry x="220" y="160" width="120" height="60" as="geometry" />
        </mxCell>
        <mxCell id="OKV0el0FlVdzbzRbePZn-35" style="edgeStyle=orthogonalEdgeStyle;rounded=0;orthogonalLoop=1;jettySize=auto;html=1;entryX=0.5;entryY=0;entryDx=0;entryDy=0;" edge="1" parent="1" source="OKV0el0FlVdzbzRbePZn-4" target="OKV0el0FlVdzbzRbePZn-32">
          <mxGeometry relative="1" as="geometry" />
        </mxCell>
        <mxCell id="OKV0el0FlVdzbzRbePZn-4" value="天数据" style="rounded=0;whiteSpace=wrap;html=1;" vertex="1" parent="1">
          <mxGeometry x="690" y="160" width="120" height="60" as="geometry" />
        </mxCell>
        <mxCell id="OKV0el0FlVdzbzRbePZn-24" style="edgeStyle=orthogonalEdgeStyle;rounded=0;orthogonalLoop=1;jettySize=auto;html=1;entryX=0;entryY=0.5;entryDx=0;entryDy=0;" edge="1" parent="1" source="OKV0el0FlVdzbzRbePZn-5" target="OKV0el0FlVdzbzRbePZn-4">
          <mxGeometry relative="1" as="geometry" />
        </mxCell>
        <mxCell id="OKV0el0FlVdzbzRbePZn-34" style="edgeStyle=orthogonalEdgeStyle;rounded=0;orthogonalLoop=1;jettySize=auto;html=1;" edge="1" parent="1" source="OKV0el0FlVdzbzRbePZn-5" target="OKV0el0FlVdzbzRbePZn-31">
          <mxGeometry relative="1" as="geometry" />
        </mxCell>
        <mxCell id="OKV0el0FlVdzbzRbePZn-5" value="小时数据" style="rounded=0;whiteSpace=wrap;html=1;" vertex="1" parent="1">
          <mxGeometry x="460" y="160" width="120" height="60" as="geometry" />
        </mxCell>
        <mxCell id="OKV0el0FlVdzbzRbePZn-17" value="" style="endArrow=classic;html=1;exitX=0.5;exitY=1;exitDx=0;exitDy=0;entryX=0.5;entryY=0;entryDx=0;entryDy=0;" edge="1" parent="1" source="OKV0el0FlVdzbzRbePZn-1" target="OKV0el0FlVdzbzRbePZn-3">
          <mxGeometry width="50" height="50" relative="1" as="geometry">
            <mxPoint x="390" y="320" as="sourcePoint" />
            <mxPoint x="440" y="270" as="targetPoint" />
          </mxGeometry>
        </mxCell>
        <mxCell id="OKV0el0FlVdzbzRbePZn-18" value="" style="endArrow=classic;html=1;entryX=0.5;entryY=0;entryDx=0;entryDy=0;" edge="1" parent="1" target="OKV0el0FlVdzbzRbePZn-5">
          <mxGeometry width="50" height="50" relative="1" as="geometry">
            <mxPoint x="400" y="70" as="sourcePoint" />
            <mxPoint x="440" y="270" as="targetPoint" />
          </mxGeometry>
        </mxCell>
        <mxCell id="OKV0el0FlVdzbzRbePZn-19" value="" style="endArrow=classic;html=1;exitX=0.5;exitY=1;exitDx=0;exitDy=0;entryX=0.5;entryY=0;entryDx=0;entryDy=0;" edge="1" parent="1" source="OKV0el0FlVdzbzRbePZn-1" target="OKV0el0FlVdzbzRbePZn-4">
          <mxGeometry width="50" height="50" relative="1" as="geometry">
            <mxPoint x="390" y="320" as="sourcePoint" />
            <mxPoint x="440" y="270" as="targetPoint" />
          </mxGeometry>
        </mxCell>
        <mxCell id="OKV0el0FlVdzbzRbePZn-20" value="" style="endArrow=classic;html=1;entryX=0.5;entryY=0;entryDx=0;entryDy=0;" edge="1" parent="1" target="OKV0el0FlVdzbzRbePZn-2">
          <mxGeometry width="50" height="50" relative="1" as="geometry">
            <mxPoint x="400" y="70" as="sourcePoint" />
            <mxPoint x="700" y="170" as="targetPoint" />
          </mxGeometry>
        </mxCell>
        <mxCell id="OKV0el0FlVdzbzRbePZn-21" value="数据分流" style="text;html=1;align=center;verticalAlign=middle;resizable=0;points=[];autosize=1;" vertex="1" parent="1">
          <mxGeometry x="370" y="111" width="60" height="20" as="geometry" />
        </mxCell>
        <mxCell id="OKV0el0FlVdzbzRbePZn-25" value="生成分钟数据" style="text;html=1;align=center;verticalAlign=middle;resizable=0;points=[];autosize=1;" vertex="1" parent="1">
          <mxGeometry x="130" y="170" width="90" height="20" as="geometry" />
        </mxCell>
        <mxCell id="OKV0el0FlVdzbzRbePZn-26" value="生成小时数据" style="text;html=1;align=center;verticalAlign=middle;resizable=0;points=[];autosize=1;" vertex="1" parent="1">
          <mxGeometry x="330" y="170" width="90" height="20" as="geometry" />
        </mxCell>
        <mxCell id="OKV0el0FlVdzbzRbePZn-27" value="生成天数据" style="text;html=1;align=center;verticalAlign=middle;resizable=0;points=[];autosize=1;" vertex="1" parent="1">
          <mxGeometry x="575" y="170" width="80" height="20" as="geometry" />
        </mxCell>
        <mxCell id="OKV0el0FlVdzbzRbePZn-29" value="比对实时警报规则" style="rhombus;whiteSpace=wrap;html=1;" vertex="1" parent="1">
          <mxGeometry x="20" y="290" width="120" height="80" as="geometry" />
        </mxCell>
        <mxCell id="OKV0el0FlVdzbzRbePZn-30" value="比对分钟警报规则" style="rhombus;whiteSpace=wrap;html=1;" vertex="1" parent="1">
          <mxGeometry x="220" y="280" width="120" height="80" as="geometry" />
        </mxCell>
        <mxCell id="OKV0el0FlVdzbzRbePZn-31" value="比对小时警报规则" style="rhombus;whiteSpace=wrap;html=1;" vertex="1" parent="1">
          <mxGeometry x="460" y="280" width="120" height="80" as="geometry" />
        </mxCell>
        <mxCell id="OKV0el0FlVdzbzRbePZn-32" value="比对天警报规则" style="rhombus;whiteSpace=wrap;html=1;" vertex="1" parent="1">
          <mxGeometry x="690" y="280" width="120" height="80" as="geometry" />
        </mxCell>
      </root>
    </mxGraphModel>
  </diagram>
</mxfile>
